<?xml version="1.0" encoding="UTF-8"?><svg id="Layer_2" xmlns="http://www.w3.org/2000/svg" xmlns:xlink="http://www.w3.org/1999/xlink" viewBox="0 0 513.73 643.07"><defs><linearGradient id="linear-gradient" x1="308.24" y1="99.2" x2="246.92" y2="32.85" gradientUnits="userSpaceOnUse"><stop offset="0" stop-color="#e97620"/><stop offset="1" stop-color="#f17d1f"/></linearGradient><linearGradient id="linear-gradient-2" x1="187.72" y1="56.21" x2="294.85" y2="79.99" gradientUnits="userSpaceOnUse"><stop offset="0" stop-color="#e97526"/><stop offset="1" stop-color="#cd571a"/></linearGradient><linearGradient id="linear-gradient-3" x1="186.52" y1="32.62" x2="229.06" y2="119.15" gradientUnits="userSpaceOnUse"><stop offset="0" stop-color="#e86f20"/><stop offset="1" stop-color="#bf4d1d"/></linearGradient><linearGradient id="linear-gradient-4" x1="159.89" y1="111.55" x2="211.12" y2="154.32" gradientUnits="userSpaceOnUse"><stop offset="0" stop-color="#c8501d"/><stop offset="1" stop-color="#b7481b"/></linearGradient><linearGradient id="linear-gradient-5" x1="1104.85" y1="-1669.67" x2="1155.16" y2="-1587.48" gradientTransform="translate(-119.07 2069.51) rotate(-26.1)" gradientUnits="userSpaceOnUse"><stop offset="0" stop-color="#ed5c14"/><stop offset="1" stop-color="#be4b19"/></linearGradient><linearGradient id="linear-gradient-6" x1="104.08" y1="72.3" x2="77.69" y2="72.26" gradientTransform="matrix(1,0,0,1,0,0)" xlink:href="#linear-gradient-5"/><linearGradient id="linear-gradient-7" x1="312.94" y1="251.16" x2="310.96" y2="160.3" gradientUnits="userSpaceOnUse"><stop offset="0" stop-color="#e56f1f"/><stop offset=".26" stop-color="#ce621a"/><stop offset="1" stop-color="#913f10"/></linearGradient><linearGradient id="linear-gradient-8" x1="185.86" y1="451.17" x2="277.95" y2="279.38" gradientUnits="userSpaceOnUse"><stop offset="0" stop-color="#283970"/><stop offset=".12" stop-color="#263567"/><stop offset="1" stop-color="#1b202a"/></linearGradient><linearGradient id="linear-gradient-9" x1="28.35" y1="656.7" x2="119.58" y2="496.1" gradientUnits="userSpaceOnUse"><stop offset="0" stop-color="#000"/><stop offset="1" stop-color="#2c3a6e"/></linearGradient><linearGradient id="linear-gradient-10" x1="20.41" y1="622.49" x2="119.09" y2="424.21" gradientUnits="userSpaceOnUse"><stop offset="0" stop-color="#000"/><stop offset=".83" stop-color="#2c3a6e"/></linearGradient><linearGradient id="linear-gradient-11" x1="266.27" y1="251.06" x2="115.05" y2="499.73" gradientUnits="userSpaceOnUse"><stop offset=".23" stop-color="#f17f21"/><stop offset=".44" stop-color="#e8761f"/><stop offset=".77" stop-color="#d25f1c"/><stop offset="1" stop-color="#be4b19"/></linearGradient><linearGradient id="linear-gradient-12" x1="226.89" y1="235.88" x2="226.45" y2="160.97" gradientUnits="userSpaceOnUse"><stop offset="0" stop-color="#ef811f"/><stop offset="1" stop-color="#b8471b"/></linearGradient><linearGradient id="linear-gradient-13" x1="210.87" y1="255.38" x2="173.89" y2="310.71" gradientUnits="userSpaceOnUse"><stop offset=".21" stop-color="#f17f21"/><stop offset=".23" stop-color="#ee7c20"/><stop offset=".53" stop-color="#d4611c"/><stop offset=".8" stop-color="#c35019"/><stop offset="1" stop-color="#be4b19"/></linearGradient><linearGradient id="linear-gradient-14" x1="106.47" y1="348.57" x2="334.76" y2="348.57" gradientUnits="userSpaceOnUse"><stop offset="0" stop-color="#05060d"/><stop offset=".29" stop-color="#121931"/><stop offset=".57" stop-color="#1d274c"/><stop offset=".81" stop-color="#232f5d"/><stop offset="1" stop-color="#263363"/></linearGradient><linearGradient id="linear-gradient-15" x1="79.02" y1="402.13" x2="311.69" y2="402.13" gradientUnits="userSpaceOnUse"><stop offset="0" stop-color="#05060d"/><stop offset=".16" stop-color="#0f1428"/><stop offset=".36" stop-color="#192141"/><stop offset=".56" stop-color="#202b54"/><stop offset=".77" stop-color="#24315f"/><stop offset="1" stop-color="#263363"/></linearGradient><linearGradient id="linear-gradient-16" x1="120.4" y1="393.19" x2="115.31" y2="374.07" xlink:href="#linear-gradient-14"/><linearGradient id="linear-gradient-17" x1="87.83" y1="435.35" x2="87.59" y2="417.44" xlink:href="#linear-gradient-14"/></defs><g id="Layer_1-2"><path d="M84.89,449.88s66.12,16.81,121.03,3.36c54.91-13.45,80.88-22.04,125.51-66.12,45.58-45.01,32.5-94.13,26.89-109.82-5.6-15.69-25-39.41-27.24-49.5-2.24-10.09-6.38-18.86,3.71-30.07,10.09-11.21,19.05-17.93,19.05-17.93l12.33-14.57s0-5.6-4.48-14.57c-4.48-8.96-20.17-31.38-29.14-36.98-8.96-5.6-30.26-21.29-62.75-7.84-32.5,13.45-46.79,31.8-50.43,49.31-2.24,17.23-1.82,47.49-1.12,58.27.7,10.79-17.93,23.53-39.22,45.95-22.41,24.65-81.81,126.63-94.13,190.51Z" style="fill:#f17f21;"/><path d="M326.89,119.36s9.86-69.73,6.9-82.03c-7.89-9.23-21.68-15.38-21.68-15.38l-15.77,89.21s8.87-2.05,30.55,8.2Z" style="fill:#f38721;"/><path d="M317.72,111.52s-31.34-91.14-36.8-99.17c-11.89-6.37-28.94-7.27-28.94-7.27l16.43,108.3s4.48-1.87,14.57-2.24c6.64-.25,14.19-3.74,34.74.37Z" style="fill:url(#linear-gradient);"/><path d="M293.87,114.91S225.33,14.05,216.55,5.66c-14.68-5.27-32.4-3.2-32.4-3.2l60.25,123.67s3.82-3.01,13.94-5.29c6.66-1.5,12.96-6.97,35.54-5.93Z" style="fill:url(#linear-gradient-2);"/><path d="M269.06,118.22c-22.46,2.49-27.84,8.87-34.18,11.39-9.65,3.83-12.95,7.39-12.95,7.39l-32.56-46.61-6.26-3.64.04-31.77h-18.48l-7.61-.02.16-27.95h23.85c21.15,19.9,87.99,91.22,87.99,91.22Z" style="fill:url(#linear-gradient-3);"/><path d="M334.97,30.73l-.58,17.07c-8.85-3.7-17.38-6.82-25.56-9.43.35-1.94,2.77-15.09,3.68-19.59,3.29.29,22.46,11.95,22.46,11.95Z"/><path d="M289.72,32.98c-12.43-3.02-23.9-4.87-34.37-5.88-.85-5.57-2.89-18.77-3.93-23.42,3.62-.99,28.9,4.17,28.9,4.17l9.4,25.13Z"/><path d="M246.45,127.18c-16.5,15.46-17.69,18.57-21.26,24.4-5.42,8.85-6.16,6.16-6.16,6.16l-78.45-8.97-29.48-21.31,35.13.38v-22.74c29.64,5.13,100.22,22.08,100.22,22.08Z" style="fill:url(#linear-gradient-4);"/><path d="M232.36,26.15c-14.61.21-26.29,2.03-34.71,3.98-1.4-2.88-11.17-22.97-14.64-29.2,3.29-1.82,31.12-.42,31.12-.42l18.23,25.64Z"/><rect x="75.64" y="104.89" width="20.17" height="20.17" style="fill:#f38721;"/><path d="M248.51,123.93s-106.46-61.42-118.04-65.08l-.49,49.56,96.44,40.37s1.36-15.84,22.1-24.85Z" style="fill:url(#linear-gradient-5);"/><path d="M338.57,123.31s-4.95-13.62-49.06-16.56c-50.08-3.35-70.47,53.24-70.47,53.24l88.66-41.33,30.87,4.66Z" style="fill:#f17f21;"/><rect x="112.62" y="7.02" width="22.79" height="22.79" style="fill:#ee7420;"/><rect x="104.09" y="58.85" width="26.39" height="26.93" style="fill:url(#linear-gradient-6);"/><path d="M262.91,425.35s14.94,45.39,14.01,47.07c-.93,1.68-13.45,5.42-13.45,5.42-1.34,3.52.56,7.66,3.92,7.66s15.69-3.18,27.27-2.24c11.58.93,32.68,9.15,32.68,9.15,0,0-1.49-5.42-6.54-10.65-2.75-2.85-25.78-7.27-30.63-10.09-4.42-2.57-18.3-38.79-19.05-48.75l-8.22,2.43Z" style="fill:#2c3a6e;"/><path d="M236.76,426.85s14.94,45.39,14.01,47.07-13.45,5.42-13.45,5.42c-1.34,3.52.56,7.66,3.92,7.66s15.69-3.18,27.27-2.24c11.58.93,32.68,9.15,32.68,9.15,0,0-1.49-5.42-6.54-10.65-2.75-2.85-25.78-7.27-30.63-10.09-4.42-2.57-18.3-38.79-19.05-48.75l-8.22,2.43Z" style="fill:#2c3a6e;"/><path d="M354.62,178.59l-19.61,3.36s-18.49,17.74-30.82,19.42c-12.33,1.68-28.58-3.74-35.86-12.14,18.49,20.17,72.56,66.3,80.4,69.67-4.48-10.09-9.81-19.24-15.41-30.44-5.6-11.21-3.92-16.25-2.24-21.29,1.68-5.04,12.89-16.81,23.53-28.58Z" style="fill:url(#linear-gradient-7);"/><path d="M509.73,192.32s-80.04-37.56-147.55-40.53c-8.96,9.15-28.02,29.6-27.64,30.44s46.77-6.59,86.92-2.38c17.71,1.85,81.73,11.79,88.27,12.47Z"/><path d="M349.29,165.2s51.02,1.06,72.31,4.85c21.66,3.85,92.13,23.37,92.13,23.37,0,0-99.36-44.64-151.55-41.63-.36.02-12.89,13.41-12.89,13.41Z" style="fill:#2e3c43;"/><path d="M168.66,461.58s76.77-12.23,109.74-28.16c33.06-15.97,65.46-57.27,69.47-67.21,3.51-8.72,3.55-32.61.56-44.82-8.28-33.83-28.48-53.95-41.09-61.52-12.61-7.56-21.01-10.93-21.01-10.93,0,0-6.72-6.72-34.46-7.56-13.34-.4-34.36,5.79-51.27,15.97-18.26,10.99-35.22,24.65-43.7,36.14-4.48,6.07-18.49,17.65-30.26,68.08-11.77,50.43-11.77,84.05-11.77,90.77s-4.2,18.49-4.2,18.49l57.99-9.25Z" style="fill:url(#linear-gradient-8);"/><path d="M155.37,458.92l-82.28,153.91s-14.72,23.29-34.35,28.01c-19.63,4.72-18.48,1.18-18.48-3.54s106.24-181.63,106.24-181.63l28.87,3.24Z" style="fill:url(#linear-gradient-9);"/><path d="M96.46,472.22L.09,613.42s-1.12,10.09,4.48,13.45c5.6,3.36,23.53-6.72,23.53-6.72l97.49-159.13-17.93-8.96-11.21,20.17Z" style="fill:url(#linear-gradient-10);"/><path d="M323.39,275.71c-.09-.64-1.77-4.86-2.52-5.88-4.08-5.6-18.84-21.95-39.19-27.5-24.65-6.72-76.2-15.69-125.51,43.7-49.31,59.39-95.25,202.83-95.25,202.83,0,0,14.66-7.1,31.38-17.93,24.96-16.18,66.67-33.17,104.39-51.55,38.29-18.65,70.11-39.18,80.19-48.14,13.04-11.59,37.84-39.68,44.02-71.77,2.26-11.73,3.33-17.88,2.49-23.77Z" style="fill:url(#linear-gradient-11);"/><path d="M333.8,293.71s3.22,16.31-4.48,34.74c-7.7,18.43-34.47,53.49-55.02,66.71-20.54,13.22-117.7,63.99-129.58,69.95-11.88,5.96-102.28,44.95-102.28,44.95,0,0,105.47-145.51,115.68-151.71,10.21-6.19,55.3-79.06,101.77-93.41,15.09-4.66,33.49-13.87,52.05-2.06,18.49,11.77,21.85,30.82,21.85,30.82Z" style="fill:#e16a1d;"/><path d="M218.66,159.61s1.4-6.82,15.69-8.78c14.29-1.96,21.2,5.79,21.2,5.79,0,0-7.19-1.49-11.67,2.99s-11.3,14.29-6.26,32.78,30.82,38.1,36.98,42.58,10.65,7.84,10.65,7.84c0,0-58.18-21.25-116.45,29.74,16.34-22.51,43.33-44.96,46.32-55.05,3.27-11.04,3.55-57.9,3.55-57.9Z" style="fill:url(#linear-gradient-12);"/><path d="M325.88,335.38s-30.07-20.92-80.5-7.47-138.92,80.02-138.92,80.02l-9.53,19.06s101.35-64.88,123.2-73.28c53.66-20.64,91.54,3.71,91.54,3.71,0,0,9.15-12.79,14.19-22.04Z" style="fill:#fff;"/><path d="M230.36,255.75s-22.84,6.39-37.41,22.08c-14.57,15.69-29.14,31.38-29.14,31.38,0,0,20.31-51.97,26.89-49.31,8.38,3.39,39.65-4.15,39.65-4.15Z" style="fill:url(#linear-gradient-13);"/><path d="M108.37,367.46s-9.47,20.45-1.91,40.26l-9.53,19.06s-4.05-12.39-4.29-23.11c-.04-1.8,15.72-36.21,15.72-36.21Z" style="fill:#fff;"/><path d="M331.77,286.71s-26.02-22.63-76.44-9.18-122.75,83.59-122.75,83.59l-12.58,25.39s87.58-71.79,108.7-81.69c27.34-12.82,55.14-19.44,75.12-15.83,18.07,3.26,30.57,15.93,30.57,15.93,0,0,.98-8.53-2.62-18.2Z" style="fill:#fff;"/><path d="M289.38,382.87s-29.21-13.31-79.63.14c-50.43,13.45-130.72,76.25-130.72,76.25l-9.93,15.07s106.48-61.06,128.33-69.46c53.66-20.64,64.55-2.09,64.55-2.09,0,0,20.61-11.78,27.41-19.9Z" style="fill:#fff;"/><path d="M148.72,294.07s-21.17,27.49-16.14,67.05l-12.78,26s-1.49-31.72,4.23-51.47c4.38-15.13,24.69-41.58,24.69-41.58Z" style="fill:#fff;"/><path d="M82.59,427.62s-3.95,13.18-3.58,31.64l-9.93,15.07s-.24-.57-.99-6.6c-.22-1.79,14.5-40.11,14.5-40.11Z" style="fill:#fff;"/><path d="M334.4,304.91s-14.75-22.42-66.84-13.67c-52.09,8.75-147.55,95.27-147.55,95.27l-13.54,21.43s102.78-66.69,125.28-75.3c29.12-11.14,51.27-13.03,70.5-6.15,17.39,6.22,26.86,8.39,26.86,8.39,0,0,7.34-18.29,5.3-29.97Z" style="fill:url(#linear-gradient-14);"/><path d="M311.69,357.42s-24.48-21.45-74.91-8c-50.43,13.45-139.84,77.57-139.84,77.57l-17.92,32.26s95.07-63.38,116.92-71.79c53.66-20.64,93.44-2.24,93.44-2.24,0,0,17.27-18.57,22.31-27.81Z" style="fill:url(#linear-gradient-15);"/><path d="M123.49,337.21s-5.53,22.9-3.69,49.9l-13.33,20.82s-6.01-15.34-.29-35.09c4.38-15.13,17.32-35.63,17.32-35.63Z" style="fill:url(#linear-gradient-16);"/><path d="M86.05,420.48l-3.91,9.45s-3.97,25.08-3.13,29.33c2.47-4.55,17.92-32.26,17.92-32.26,0,0-3.88-12.76-4.29-23.33-4.97,11.59-6.6,16.81-6.6,16.81Z" style="fill:url(#linear-gradient-17);"/></g></svg>